<svg width="144" height="25" viewBox="0 0 144 25" xmlns="http://www.w3.org/2000/svg"><title>BlaBlaCar</title><g fill="none" fill-rule="evenodd"><g><path d="M66.69 16.352c.112 1.05.02 1.99-.277 2.824-.305.84-.744 1.558-1.34 2.153-.7.707-1.495 1.247-2.386 1.614-.89.37-2.043.635-3.46.797l-8.168.932-2.253-21.086 7.21-.822c1.495-.173 2.636-.245 3.423-.213.782.033 1.53.197 2.25.497.774.324 1.38.804 1.813 1.442.432.637.694 1.398.79 2.287.11 1.026-.04 1.97-.455 2.83-.408.862-1.037 1.53-1.87 2.01l.012.11c1.29.132 2.36.574 3.21 1.333.846.763 1.347 1.855 1.5 3.292zM59.2 8.436c-.036-.34-.158-.68-.367-1.017-.207-.343-.497-.573-.87-.694-.352-.11-.763-.15-1.225-.108-.465.038-1.15.11-2.064.21l-.357.044.477 4.462.645-.074c.876-.1 1.49-.18 1.838-.24.35-.057.704-.198 1.06-.424.388-.24.646-.55.76-.918.117-.367.152-.78.103-1.242zm2.203 8.42c-.067-.653-.25-1.144-.546-1.485-.296-.337-.707-.573-1.24-.703-.327-.087-.762-.107-1.305-.06-.544.05-1.274.124-2.188.23l-.947.107.565 5.284.277-.032c1.33-.153 2.252-.263 2.76-.34.512-.08 1.018-.267 1.525-.564.44-.26.75-.603.92-1.03.172-.426.234-.896.178-1.405zM74.017 22.293l-4.688.463-1.997-21.523L72.02.768l1.997 21.525zM85.733 19.47c-.295.308-.562.585-.796.827-.235.25-.553.508-.96.77-.402.253-.794.456-1.178.605-.39.15-.943.263-1.655.33-1.328.133-2.474-.22-3.443-1.052-.96-.837-1.51-1.955-1.638-3.354-.11-1.156.027-2.11.407-2.863.384-.754.972-1.38 1.775-1.88.804-.505 1.795-.902 2.954-1.187 1.164-.283 2.418-.536 3.766-.763l-.01-.08c-.078-.86-.437-1.42-1.08-1.688-.643-.266-1.574-.34-2.8-.217-.55.054-1.188.22-1.91.505-.718.278-1.418.616-2.093 1.008l-.4.04-.348-3.748c.453-.185 1.182-.42 2.203-.713 1.018-.293 2.052-.49 3.104-.593 2.586-.258 4.513.003 5.78.776 1.264.772 1.982 2.072 2.148 3.895l.982 10.57-4.66.46-.15-1.647zm-.223-2.408l-.3-3.236c-.786.16-1.42.295-1.907.404-.486.108-.956.275-1.412.498-.4.19-.7.44-.896.763-.2.324-.276.732-.23 1.233.066.726.306 1.21.707 1.445.41.237.98.313 1.72.238.407-.036.818-.177 1.23-.412.41-.234.775-.545 1.09-.932z" id="Shape" fill="#0083BA"/><path d="M17.885 16.066c.096 1.05-.013 1.99-.325 2.818-.317.833-.77 1.544-1.378 2.126-.71.695-1.515 1.223-2.413 1.575-.895.35-2.055.595-3.472.73l-8.185.78L.226 2.974l7.222-.688c1.5-.144 2.638-.197 3.427-.15.78.047 1.53.223 2.24.537.77.34 1.366.83 1.79 1.474.42.647.67 1.413.75 2.304.092 1.027-.073 1.97-.504 2.818-.424.857-1.058 1.513-1.905 1.976l.01.113c1.288.153 2.35.617 3.186 1.39.834.78 1.32 1.877 1.445 3.32zm-7.35-8.055c-.03-.34-.148-.683-.35-1.022-.2-.346-.486-.58-.856-.708-.353-.118-.763-.162-1.228-.13-.463.03-1.152.088-2.067.173l-.356.036.4 4.468.643-.062c.88-.086 1.495-.153 1.845-.207.352-.05.708-.186 1.067-.405.392-.234.656-.54.775-.904.123-.36.166-.776.126-1.24zm2.056 8.463c-.053-.656-.23-1.15-.52-1.497-.288-.344-.696-.586-1.226-.725-.324-.092-.758-.12-1.302-.085-.546.04-1.276.103-2.19.19l-.95.09.474 5.294.276-.03c1.335-.127 2.258-.22 2.77-.288.51-.072 1.02-.248 1.532-.537.448-.25.762-.59.94-1.012.174-.42.246-.89.197-1.4zM25.11 22.14l-4.695.378L18.79.96l4.696-.377L25.11 22.14zM36.873 19.535c-.302.305-.573.574-.812.812-.236.247-.56.497-.97.753-.407.244-.805.44-1.19.58-.392.145-.945.247-1.66.3-1.33.11-2.468-.262-3.423-1.116-.947-.853-1.476-1.982-1.58-3.384-.09-1.155.063-2.108.457-2.854.396-.745.994-1.36 1.803-1.848.814-.49 1.81-.865 2.976-1.13 1.168-.262 2.428-.492 3.78-.696l-.007-.08c-.063-.86-.415-1.428-1.05-1.71-.64-.275-1.568-.366-2.796-.267-.553.044-1.194.2-1.92.468-.722.266-1.428.592-2.11.97l-.403.032-.28-3.753c.453-.178 1.19-.4 2.214-.675 1.022-.272 2.06-.45 3.114-.534 2.59-.21 4.51.086 5.765.88 1.25.797 1.944 2.11 2.08 3.937l.8 10.583-4.667.373-.12-1.64zm-.182-2.412l-.245-3.24c-.788.145-1.425.272-1.913.37-.485.1-.96.257-1.42.472-.403.182-.703.428-.91.745-.204.32-.286.728-.25 1.227.055.73.284 1.217.682 1.46.407.24.972.33 1.715.27.41-.03.82-.16 1.24-.392.41-.227.778-.532 1.1-.912z" id="Shape" fill="#6CB42F"/><path d="M124.935 20.984c-.333.284-.63.547-.893.775-.264.228-.617.46-1.063.693-.434.222-.86.392-1.275.508-.414.12-.988.177-1.73.178-1.383.005-2.532-.47-3.448-1.426-.916-.955-1.38-2.162-1.382-3.62-.003-1.2.226-2.168.688-2.908.46-.74 1.13-1.328 2-1.763.88-.44 1.93-.752 3.155-.928 1.225-.176 2.54-.313 3.952-.413v-.088c-.002-.893-.323-1.508-.96-1.846-.63-.335-1.587-.505-2.856-.5-.577.002-1.247.11-2.017.33-.77.22-1.52.496-2.256.834h-.414l-.013-3.897c.483-.144 1.264-.318 2.338-.52 1.075-.197 2.16-.298 3.257-.3 2.69-.01 4.65.447 5.885 1.367 1.232.92 1.848 2.333 1.855 4.23l.03 10.99-4.84.016-.012-1.712zm-.006-2.506l-.01-3.367c-.827.09-1.495.17-2.006.232-.51.06-1.01.186-1.5.37-.428.157-.76.388-.994.702-.237.312-.353.728-.35 1.245 0 .756.2 1.276.592 1.56.398.278.978.42 1.748.416.427 0 .864-.104 1.31-.307.447-.203.85-.486 1.21-.852zM143.85 11.24h-.405c-.188-.065-.454-.115-.805-.15-.354-.03-.746-.046-1.17-.046-.51 0-1.046.08-1.607.237-.562.155-1.105.337-1.632.55l.033 10.82-4.87.013-.048-16.15 4.87-.018.008 2.314c.222-.21.527-.476.922-.8.392-.322.755-.58 1.076-.773.353-.222.764-.41 1.23-.57.468-.162.912-.242 1.328-.242.155 0 .334.005.528.012.198.01.373.023.533.043l.01 4.76zM106.516 23.166c-3.107.008-5.578-.956-7.41-2.89-1.833-1.937-2.755-4.665-2.764-8.183-.01-3.397.895-6.105 2.723-8.13 1.827-2.024 4.293-3.04 7.4-3.05.826-.005 1.572.046 2.227.136.662.094 1.29.226 1.894.395.477.144.99.338 1.55.588.556.246 1.004.46 1.35.642l.013 5.104h-.532c-.25-.23-.563-.503-.95-.823-.38-.32-.81-.63-1.294-.937-.486-.306-1.017-.565-1.595-.78-.584-.214-1.186-.318-1.823-.317-.748.003-1.438.127-2.064.373-.625.247-1.216.672-1.78 1.28-.523.546-.94 1.285-1.27 2.217-.326.93-.49 2.03-.484 3.295.003 1.336.178 2.454.525 3.358.345.905.798 1.636 1.356 2.19.544.538 1.143.922 1.806 1.162.664.236 1.327.353 1.984.35.688 0 1.34-.12 1.962-.356.62-.236 1.145-.5 1.57-.79.466-.298.873-.602 1.22-.91.354-.308.66-.58.916-.822l.477-.003.014 5.036c-.38.182-.822.393-1.322.63-.5.234-1.015.438-1.545.6-.648.203-1.254.36-1.82.466-.563.108-1.343.163-2.337.166z" fill="#C83434"/></g></g></svg>